<svg width="18" height="18" viewBox="0 0 18 18" fill="none" xmlns="http://www.w3.org/2000/svg">
<path fill-rule="evenodd" clip-rule="evenodd" d="M5.28269 0.110456C3.8176 0.176561 2.54773 0.534759 1.52235 1.55582C0.493376 2.58224 0.139627 3.85714 0.0733576 5.30699C0.0321628 6.21192 -0.208723 13.0485 0.489795 14.8414C0.960846 16.0509 1.8886 16.9809 3.10921 17.4535C3.67877 17.675 4.32895 17.825 5.28269 17.8688C13.2574 18.2297 16.2136 18.0332 17.4602 14.8414C17.6814 14.2732 17.8336 13.6236 17.8757 12.6722C18.2402 4.67704 17.8166 2.94403 16.4267 1.55582C15.3243 0.456144 14.0276 -0.292429 5.28269 0.110456ZM5.35611 16.2608C4.48296 16.2215 4.00923 16.076 3.69311 15.9536C2.89787 15.6445 2.30055 15.0497 1.99338 14.2591C1.46144 12.8968 1.63786 6.42647 1.68533 5.3795C1.7319 4.35397 1.93966 3.41671 2.66325 2.69312C3.55878 1.7998 4.7158 1.36199 12.5938 1.71754C13.6219 1.76399 14.5613 1.97132 15.2867 2.69312C16.1822 3.58644 16.6264 4.75236 16.2646 12.6002C16.2252 13.4711 16.0793 13.9438 15.9566 14.2591C15.1461 16.3361 13.2816 16.6244 5.35611 16.2608ZM12.6807 4.22066C12.6807 4.81204 13.1616 5.29293 13.7554 5.29293C14.3491 5.29293 14.8309 4.81204 14.8309 4.22066C14.8309 3.62929 14.3491 3.14884 13.7554 3.14884C13.1616 3.14884 12.6807 3.62929 12.6807 4.22066ZM4.3764 8.98917C4.3764 11.5226 6.43524 13.5766 8.97498 13.5766C11.5147 13.5766 13.5736 11.5226 13.5736 8.98917C13.5736 6.45572 11.5147 4.40304 8.97498 4.40304C6.43524 4.40304 4.3764 6.45572 4.3764 8.98917ZM5.99016 8.98917C5.99016 7.34547 7.3263 6.01187 8.97498 6.01187C10.6237 6.01187 11.9598 7.34547 11.9598 8.98917C11.9598 10.6338 10.6237 11.9678 8.97498 11.9678C7.3263 11.9678 5.99016 10.6338 5.99016 8.98917Z" fill="#00026E"/>
</svg>
